<svg xmlns="http://www.w3.org/2000/svg" width="76.44mm" height="137.52mm" viewBox="0 0 216.68 389.82"><defs><style>.cls-1{fill:#f9f9f9;}.cls-2{fill:none;stroke:#fccc8a;stroke-miterlimit:10;}</style></defs><g id="Layer_1" data-name="Layer 1"><rect class="cls-1" x="-26.26" y="-329.57" width="257.46" height="476.33"/><path class="cls-2" d="M475.6,267.92c2.15,10.5,1.94,30.28-9.24,53.72-6.06,12.69-13.55,22.71-23,35.37-13.75,18.4-23.35,31.26-41,46.35-1.18,1-2.53,2.15-4.07,3.42A241.5,241.5,0,0,1,341.53,442c-32.4,14.41-59.42,18.15-73.74,20,0,0-71.6,9.37-117.36-19.4a78.92,78.92,0,0,1-22-21.5c-3.2-4.7-4.16-7.37-4.43-10.34-.69-7.79,3.24-19.42,13.57-26.7,5.63-4,12-5.79,18.25-6.79,7.55-1.2,15.06-1.23,21.27-2.39,56.52-10.57,81.35-129.12,154.72-158.23C386.81,194.87,466.66,224.2,475.6,267.92Z"/><path class="cls-2" d="M1.73,362.73c8.9-6,22.61-20.23,31.08-44.78,4.58-13.3,6.27-25.69,8.41-41.36,3.1-22.75,5.26-38.66,3.23-61.82-.13-1.53-.29-3.3-.49-5.29a241.73,241.73,0,0,0-15.74-64.87c-13-33-29.63-54.61-38.52-66,0,0-44.47-56.89-97.28-68.47a78.69,78.69,0,0,0-30.74-.08c-5.57,1.1-8.13,2.33-10.4,4.26-6,5.07-11.31,16.12-9.06,28.55,1.24,6.79,4.47,12.52,8.26,17.65C-145,66.68-139.65,72-136,77.14c32.89,47.17-32.54,149.1-.65,221.31C-112.79,352.54-35.3,387.62,1.73,362.73Z"/><path class="cls-2" d="M87.4,244.63A53.45,53.45,0,0,1,94,222c2.63-4.73,5.44-8,9-12.2,5.18-6,8.79-10.29,14.8-14.22l1.37-.88A44.62,44.62,0,0,1,137.44,188a45.41,45.41,0,0,1,21.79,2.89s20.4,7.33,30.81,27.66a54.61,54.61,0,0,1,4.42,13.21,16.25,16.25,0,0,1,.43,5.36c-.39,3.62-2.36,8.21-5.75,9.82a7.31,7.31,0,0,1-5.53.11c-2.17-.68-4.23-1.88-6-2.36-16.35-4.36-32.14,45-54.52,46.2C106.29,291.8,86.55,265.73,87.4,244.63Z"/></g></svg>