<svg xmlns="http://www.w3.org/2000/svg" width="271.55mm" height="150.62mm" viewBox="0 0 769.75 426.95"><defs><style>.cls-1{fill:#f9f9f9;}.cls-2,.cls-3{fill:none;stroke:#fccc8a;stroke-miterlimit:10;}.cls-2{stroke-width:0.5px;}</style></defs><g id="Layer_1" data-name="Layer 1"><rect class="cls-1" x="-43.34" y="-309.9" width="858.78" height="476.33"/><path class="cls-2" d="M886.81,238.4c15,8.27,39.07,27.28,57.15,58.62,9.79,17,14.91,32.56,21.4,52.26,9.41,28.62,16,48.62,17.55,77.26.11,1.9.22,4.09.31,6.54a220.05,220.05,0,0,1-11.15,79.32c-13.38,39.87-34.72,65.24-46.16,78.59,0,0-57.2,66.72-136.49,76.26-21.2,2.56-42-1.54-47.51-2.73-8.85-1.89-13-3.66-17-6.27-10.24-6.85-20.76-21.11-19.79-36.37.52-8.34,4.36-15.18,9.17-21.21,5.77-7.24,12.94-13.32,17.48-19.44,41.26-55.69-80.61-188.62-46-275.57C711.81,240.52,824.5,204,886.81,238.4Z"/><path class="cls-3" d="M-22.1,434.69c-11.38-4-30.36-15.62-46.57-40.13-8.78-13.28-14.16-26.41-21-43-9.87-24.12-16.77-41-21.17-67-.29-1.73-.63-3.72-1-6a277.93,277.93,0,0,1-1.43-76c4.71-40.09,16.62-68.74,23-83.87,0,0,32.1-75.6,86.2-103.82C10.51,7.36,25.45,6.06,29.44,5.8,35.82,5.38,39,6,42,7.44c7.92,3.82,16.9,14.4,18,28.73C60.56,44,58.68,51.25,56,58c-3.18,8.09-7.47,15.46-9.92,22.23-22.28,61.52,78,154.41,63.91,243.16C99.49,389.89,25.26,451.19-22.1,434.69Z"/><path class="cls-3" d="M379.38,216.65a84.13,84.13,0,0,1,12.61-35c4.6-7.18,9.35-12.09,15.35-18.29,8.73-9,14.83-15.31,24.66-20.89.65-.37,1.4-.8,2.25-1.26a70.2,70.2,0,0,1,29.36-8.72c15.84-1,27.71,4,34,6.69,0,0,31.34,13.54,45.7,46.51a86.08,86.08,0,0,1,5.65,21.2,25.78,25.78,0,0,1,.15,8.47c-1,5.65-4.52,12.68-10,14.87-3,1.2-5.93.7-8.71-.37-3.34-1.28-6.47-3.37-9.25-4.3-25.26-8.47-54.95,67.48-90.25,67.25C404.43,292.66,376,249.73,379.38,216.65Z"/></g></svg>