<svg xmlns="http://www.w3.org/2000/svg" width="258.6mm" height="175.39mm" viewBox="0 0 733.04 497.17"><defs><style>.cls-1{fill:#fccc8a;}</style></defs><g id="Layer_1" data-name="Layer 1"><path class="cls-1" d="M17.89,221.3a159.7,159.7,0,0,0,0,62.3C27.46,332,57.23,376.4,96.15,406.17,268,537.6,535.9,507.36,674.36,339.69c32.08-38.86,53.5-87.05,49.26-138.27-4.47-54-44-111.82-81.31-148.87-21.55-21.38-50.26-37.3-80.62-37-81,.73-132.18,95.3-167.9,155.26Q381,192.26,368.17,213.7c-2.38,4-5,8.19-9.14,10.27-4.34,2.16-9.5,1.57-14.24.6-32.76-6.67-56.44-30.63-83.9-47.72C193.58,135,106.58,85.06,43.93,164,30.7,180.62,22.1,200.44,17.89,221.3Z"/></g></svg>