<svg xmlns="http://www.w3.org/2000/svg" width="282.22mm" height="189.73mm" viewBox="0 0 800 537.82"><defs><style>.cls-1{fill:none;stroke:#006763;stroke-miterlimit:10;stroke-width:2px;}</style></defs><g id="Layer_1" data-name="Layer 1"><path class="cls-1" d="M771.49,179.68c49.73,122.16-55.12,234-154,289.78-122.6,69.09-271.11,80.38-400.9,23.74C168.06,472.05,122.62,442,84.9,404.89-11.67,309.82-5,159.32,78.82,59.08,135.36-8.55,207.39,9.55,266.58,62.79c33.14,29.81,61.73,65.2,87.05,101.76,23.2,33.52,37.17,76.8,80.67,49.83,48.14-29.84,84.6-74.24,132.07-104.81C593.7,92,625.31,79.61,657.8,80,719.74,80.65,750.32,127.69,771.49,179.68Z"/></g></svg>