<svg xmlns="http://www.w3.org/2000/svg" width="116.15mm" height="90.88mm" viewBox="0 0 329.23 257.62"><defs><style>.cls-1{fill:none;stroke:#fccc8a;stroke-miterlimit:10;}</style></defs><g id="Layer_1" data-name="Layer 1"><path class="cls-1" d="M291.46,186c-8.75,11.08-26.73,28.47-51.92,40.19-13.64,6.36-25.36,9.17-40.19,12.73-21.53,5.17-36.58,8.78-56.51,7.8-1.32-.06-2.85-.14-4.55-.25a124.06,124.06,0,0,1-52-14.8C61.74,218.12,48.76,199.49,42,189.52c0,0-33.9-49.84-24.1-112.57C20.5,60.18,27.58,44.25,29.54,40c3.11-6.77,5.19-9.92,7.78-12.77,6.81-7.49,18.73-14.62,29-12.7,5.6,1.06,9.49,4.58,12.63,8.81,3.77,5.06,6.45,11.14,9.71,15.15C118.28,75,234.41-10.06,286.8,23.7,326.06,49,327.85,139.9,291.46,186Z"/></g></svg>