<svg xmlns="http://www.w3.org/2000/svg" width="118.53mm" height="106.78mm" viewBox="0 0 335.99 302.67"><defs><style>.cls-1{fill:none;stroke:#fccc8a;stroke-miterlimit:10;}</style></defs><g id="Layer_1" data-name="Layer 1"><path class="cls-1" d="M245.32,278.48q-4.77,2.1-9.76,3.76c-17.06,5.66-35.29,7.45-53.18,6.4-31.94-1.89-69-11-96.44-27.75-1.13-.69-2.43-1.49-3.86-2.4a124,124,0,0,1-38.56-37.92C28.47,196.93,26,174.36,24.83,162.36c0,0-5.86-60,32.82-110.35C65.89,41.27,76.56,30.69,88,23.42c7.84-5,17-8.3,26.3-7.72,12.15.76,23.1,8.18,30.86,17.57S158,53.94,162.9,65.07q6,13.64,12.1,27.26c3.17,7.16,5.59,17.7,11.69,22.92,8.51,7.28,21.67,6.92,32,5.46,25.41-3.57,51.66-16.06,77.28-6.63a50.89,50.89,0,0,1,8.28,3.91c5.69,3.33,10.75,8.51,14.93,16.2,13.76,25.28,3,58.38-9.64,81.79C295,242.92,273.33,266.16,245.32,278.48Z"/></g></svg>