<svg xmlns="http://www.w3.org/2000/svg" width="196.07mm" height="91.78mm" viewBox="0 0 555.8 260.16"><defs><style>.cls-1{fill:none;stroke:#fccc8a;stroke-miterlimit:10;}</style></defs><g id="Layer_1" data-name="Layer 1"><path class="cls-1" d="M540.52,139.92a27.65,27.65,0,0,1-1,4.61c-19.85,64.61-144.49,22.13-189.89,38.37-50.52,18.07-38.09,50.84-87.73,62.69-50.07,12-116.5-8.51-127.73-12-2.75-.87-5.89-1.88-9.39-3.07-35.7-12.13-77.26-39.43-101.5-68.71-7.2-8.7-12.08-19.93-10.78-31.16,3.58-30.72,51.54-64.88,75.9-78.84,35.27-20.21,75.34-31.17,115.37-36.85a512.4,512.4,0,0,1,88.92-4.5c86.83,2.91,186,24.91,238.89,100.35C537.56,119.27,541.79,129.8,540.52,139.92Z"/></g></svg>