<svg xmlns="http://www.w3.org/2000/svg" width="41.85mm" height="72.21mm" viewBox="0 0 118.63 204.69"><defs><style>.cls-1{fill:#fccc8a;}</style></defs><g id="Layer_1" data-name="Layer 1"><path class="cls-1" d="M92,8.1c4.4,3.1,11.1,10.56,15,23.56,2.08,7.05,2.71,13.64,3.51,22,1.16,12.11,2,20.57.53,33-.1.82-.21,1.76-.35,2.82a139.45,139.45,0,0,1-9.14,34.79,148,148,0,0,1-20.72,35.62S57.17,190.65,30.2,197.4a38.07,38.07,0,0,1-15.58.37c-2.81-.53-4.08-1.16-5.2-2.16C6.5,193,4,187.13,5.35,180.47a24.72,24.72,0,0,1,4.5-9.5c2.41-3.33,5.21-6.21,7.14-9C34.51,136.43,3.18,82.75,20.65,43.89,33.73,14.77,73.64-4.78,92,8.1Z"/></g></svg>