<svg xmlns="http://www.w3.org/2000/svg" width="76.44mm" height="137.52mm" viewBox="0 0 216.68 389.82"><defs><style>.cls-1{fill:#f9f9f9;}.cls-2{fill:none;stroke:#fccc8a;stroke-miterlimit:10;}</style></defs><g id="Layer_1" data-name="Layer 1"><rect class="cls-1" x="-23.03" y="215.83" width="257.46" height="476.33"/><path class="cls-2" d="M-17.65,246.68C-28.3,247.94-48,246.06-70.4,233c-12.14-7.1-21.5-15.41-33.32-25.9-17.18-15.24-29.18-25.9-42.73-44.79-.89-1.26-1.93-2.7-3.07-4.34a241.59,241.59,0,0,1-30.32-59.47C-191.47,65-192.93,37.71-193.6,23.28c0,0-3.32-72.13,29.21-115.31a78.85,78.85,0,0,1,23.26-20.09c4.95-2.79,7.7-3.52,10.68-3.54,7.82,0,19.08,4.86,25.46,15.76,3.49,6,4.77,12.41,5.24,18.77.56,7.62,0,15.1.59,21.39C-93.38-2.53,22.66,32.19,45.49,107.74,62.6,164.35,26.66,241.45-17.65,246.68Z"/><path class="cls-2" d="M305.2,347.87c8.9-6,22.62-20.23,31.08-44.78,4.59-13.3,6.27-25.69,8.41-41.36,3.1-22.75,5.27-38.66,3.23-61.82-.13-1.53-.29-3.3-.49-5.29a241.22,241.22,0,0,0-15.73-64.87c-13-33-29.63-54.61-38.53-66,0,0-44.47-56.89-97.27-68.47a78.68,78.68,0,0,0-30.74-.08c-5.58,1.1-8.14,2.33-10.41,4.26C148.8,4.54,143.44,15.59,145.7,28c1.23,6.79,4.47,12.52,8.25,17.65,4.54,6.15,9.87,11.43,13.49,16.61,32.88,47.18-32.55,149.1-.65,221.31C190.68,337.68,268.17,372.76,305.2,347.87Z"/></g></svg>