<svg xmlns="http://www.w3.org/2000/svg" width="271.55mm" height="150.62mm" viewBox="0 0 769.75 426.95"><defs><style>.cls-1,.cls-3{fill:none;stroke:#fccc8a;stroke-miterlimit:10;}.cls-2{fill:#f9f9f9;}.cls-3{stroke-width:0.5px;}</style></defs><g id="Layer_1" data-name="Layer 1"><path class="cls-1" d="M741.51,26.59c-71.8-36.89-114.6,91.82-148.9,40.35S585-62.54,652.14-107.3s149.43-39.31,183.72,12.16S837.53,75.92,741.51,26.59Z"/><rect class="cls-2" x="-43.13" y="170.75" width="858.78" height="476.33"/><path class="cls-3" d="M824.78,608.49c-11,22.71-39.39,59.4-92.27,87.31-28.64,15.11-56,23.18-90.65,33.39-50.29,14.83-85.43,25.19-138,28.2-3.48.2-7.5.42-12,.62a522.84,522.84,0,0,1-150-14.93c-77.6-19.21-130.63-50.71-158.58-67.61,0,0-139.74-84.48-179.91-203.51-10.74-31.83-9-63.16-8.43-71.52,1-13.34,3.06-19.71,6.79-25.64,9.78-15.56,33.17-31.72,61.7-30.62,15.58.6,29.32,6.21,41.86,13.31,15,8.51,28.33,19.15,41,25.84,114.79,60.77,326.22-125.6,497-75.51C771.17,345.35,870.76,514,824.78,608.49Z"/></g></svg>