<svg xmlns="http://www.w3.org/2000/svg" width="271.55mm" height="150.62mm" viewBox="0 0 769.75 426.95"><defs><style>.cls-1{fill:#f9f9f9;}.cls-2,.cls-3{fill:none;stroke:#fccc8a;stroke-miterlimit:10;}.cls-2{stroke-width:0.5px;}</style></defs><g id="Layer_1" data-name="Layer 1"><rect class="cls-1" x="-44.51" y="189.22" width="858.78" height="476.33"/><path class="cls-2" d="M886.12-188.65c15,8.26,39.08,27.27,57.15,58.62,9.79,17,14.92,32.56,21.4,52.26,9.42,28.61,16,48.61,17.56,77.26.1,1.89.22,4.08.31,6.54a220.25,220.25,0,0,1-11.15,79.31c-13.39,39.87-34.72,65.25-46.17,78.6,0,0-57.2,66.72-136.49,76.26-21.2,2.55-42-1.55-47.51-2.73-8.84-1.89-13.05-3.66-17-6.27-10.24-6.86-20.77-21.11-19.8-36.38.53-8.33,4.36-15.17,9.17-21.21,5.78-7.23,13-13.31,17.48-19.44,41.27-55.69-80.6-188.62-46-275.56C711.12-186.53,823.81-223,886.12-188.65Z"/><path class="cls-3" d="M-22.79,7.63C-34.17,3.67-53.15-8-69.36-32.5c-8.78-13.28-14.15-26.41-21-43-9.87-24.12-16.76-41-21.17-67-.29-1.72-.62-3.71-1-6a277.54,277.54,0,0,1-1.42-75.95c4.7-40.09,16.62-68.75,23-83.87,0,0,32.1-75.61,86.19-103.83,14.47-7.54,29.4-8.84,33.39-9.1,6.38-.42,9.51.18,12.53,1.63,7.93,3.83,16.9,14.41,18,28.74C59.88-383,58-375.8,55.35-369c-3.18,8.09-7.47,15.46-9.92,22.23-22.28,61.51,77.95,154.4,63.9,243.16C98.8-37.17,24.58,24.14-22.79,7.63Z"/><path class="cls-3" d="M988.11,810.64c-25,26.11-80.79,63.24-169.47,76.32-48,7.09-91.53,5-146.5,2.42-79.86-3.79-135.67-6.43-214.39-27.69-5.22-1.41-11.23-3.05-18-5A885.94,885.94,0,0,1,224.21,763.5C117.06,699.35,50.84,630.06,16.05,593.12c0,0-173.91-184.63-187.74-369-3.7-49.29,10.76-91.88,14.86-103.16,6.56-18,12.05-25.83,19.82-32.25C-116.64,71.93-76,60.86-34.28,76.18-11.53,84.55,6.61,99,22.39,114.87c18.94,19.06,34.48,40.24,50.56,55.6,146.16,139.72,529.28-16.2,762.1,135.8C1009.48,420.14,1092,702,988.11,810.64Z"/></g></svg>