<svg xmlns="http://www.w3.org/2000/svg" width="76.44mm" height="137.52mm" viewBox="0 0 216.68 389.82"><defs><style>.cls-1{fill:#f9f9f9;}.cls-2{fill:none;stroke:#fccc8a;stroke-miterlimit:10;}</style></defs><g id="Layer_1" data-name="Layer 1"><rect class="cls-1" x="-20.95" y="194.49" width="257.46" height="476.33"/><path class="cls-2" d="M544.41,313.4c2.15,10.5,1.94,30.28-9.25,53.72-6,12.7-13.54,22.71-23,35.38-13.75,18.4-23.36,31.25-41,46.34-1.17,1-2.52,2.15-4.06,3.42a240.84,240.84,0,0,1-56.71,35.22c-32.4,14.41-59.42,18.15-73.74,20,0,0-71.6,9.37-117.36-19.4a78.64,78.64,0,0,1-22-21.5c-3.2-4.69-4.17-7.37-4.43-10.33-.7-7.79,3.24-19.43,13.56-26.71,5.64-4,12-5.79,18.26-6.79,7.55-1.2,15.05-1.23,21.27-2.39,56.52-10.57,81.35-129.12,154.72-158.23C455.62,240.35,535.47,269.69,544.41,313.4Z"/><path class="cls-2" d="M21.08,164.23c8.9-6,22.62-20.24,31.08-44.79,4.59-13.3,6.28-25.69,8.41-41.35,3.1-22.76,5.27-38.66,3.24-61.82-.14-1.54-.3-3.31-.5-5.29A241.35,241.35,0,0,0,47.58-53.9c-13-33-29.63-54.61-38.53-66,0,0-44.47-56.89-97.27-68.47a79.09,79.09,0,0,0-30.74-.08c-5.58,1.11-8.13,2.34-10.41,4.27-5.95,5.06-11.31,16.11-9,28.54,1.23,6.79,4.47,12.52,8.25,17.65,4.54,6.15,9.87,11.43,13.49,16.62,32.89,47.17-32.54,149.1-.65,221.3C-93.44,154-15.95,189.11,21.08,164.23Z"/><path class="cls-2" d="M171.35-15.92A53.59,53.59,0,0,1,178-38.59c2.63-4.73,5.45-8,9-12.2,5.17-6.05,8.78-10.29,14.79-14.22.4-.26.86-.56,1.38-.88a44.57,44.57,0,0,1,18.26-6.69,45.41,45.41,0,0,1,21.79,2.89S263.58-62.36,274-42a54.32,54.32,0,0,1,4.42,13.22,16.32,16.32,0,0,1,.44,5.36c-.4,3.61-2.36,8.21-5.75,9.82a7.38,7.38,0,0,1-5.54.11c-2.17-.68-4.23-1.88-6-2.36-16.34-4.36-32.14,45-54.52,46.2C190.24,31.25,170.5,5.18,171.35-15.92Z"/><path class="cls-2" d="M326.31,261.22a28.14,28.14,0,0,0-2.07-4.24c-34.83-57.92-145.57,13.34-193.54,8.53-53.38-5.36-49.22-40.17-100.25-39.7-51.48.47-111,36.33-121.06,42.46-2.46,1.5-5.27,3.24-8.38,5.24-31.72,20.38-65.48,56.89-81.94,91.15-4.9,10.18-6.93,22.26-3,32.84C-173,426.45-118.23,448-91.22,455.72c39.09,11.12,80.62,12.1,120.84,8A511.6,511.6,0,0,0,117,446.62c83.57-23.75,174.54-69,207.66-155C328.41,282,330,270.73,326.31,261.22Z"/></g></svg>