<svg xmlns="http://www.w3.org/2000/svg" width="254.15mm" height="139.09mm" viewBox="0 0 720.42 394.26"><defs><style>.cls-1{fill:#f9f9f9;}.cls-2,.cls-3{fill:none;stroke-miterlimit:10;}.cls-2{stroke:#fccc8a;stroke-width:0.5px;}.cls-3{stroke:#006763;}</style></defs><g id="Layer_1" data-name="Layer 1"><rect class="cls-1" x="-4.65" y="-6.07" width="726.18" height="402.78"/><path class="cls-2" d="M313.63-182.94c10.95-13.14,34.18-33.21,68.38-45,18.52-6.39,34.79-8.48,55.36-11.12,29.88-3.83,50.76-6.51,79.18-2.62,1.89.26,4.06.56,6.49.94a220.23,220.23,0,0,1,75.77,26c36.61,20.69,57.5,46.44,68.44,60.2,0,0,54.68,68.8,49,148.46-1.51,21.3-9.47,40.92-11.68,46.14-3.53,8.32-6.06,12.12-9.37,15.46C686.59,64.2,670.6,71.84,655.79,68c-8.09-2.09-14.07-7.15-19.09-13-6-7-10.63-15.23-15.78-20.84-46.87-51.06-200.47,43.45-279.28-7C282.59-10.71,268.05-128.27,313.63-182.94Z"/><path class="cls-3" d="M1035.5,188.81a57.69,57.69,0,0,1-11.64,18.08c-22.58,23.86-59.81,23-93.63,29.53C750,271,681,119.24,490.56,127.16c-155.16,6.44-172,185.31-321.23,178-150.47-7.32-321.76-167.39-352-183.32-7.41-3.9-15.87-8.41-25.27-13.59-99.9-55-214.87-151.67-260.9-243.38-7.22-14.37-12.64-29.58-11.87-44.48,1.6-30.8,29.1-54.6,59.62-70.38,64.05-33.13,132.64-63.54,208.26-78.32,112.55-22,233.73-19.35,351.88-4.58,86.82,10.86,173.21,28.56,257.91,51.49C631.33-217.89,945-84.41,1032.59,126.47,1041.13,147,1043.27,169.76,1035.5,188.81Z"/></g></svg>