<svg xmlns="http://www.w3.org/2000/svg" width="76.44mm" height="137.52mm" viewBox="0 0 216.68 389.82"><defs><style>.cls-1,.cls-2{fill:none;stroke-miterlimit:10;}.cls-1{stroke:#006763;}.cls-2{stroke:#fccc8a;}</style></defs><g id="Layer_1" data-name="Layer 1"><path class="cls-1" d="M284.81,254.7q-4.76,2.1-9.75,3.76c-17.06,5.66-35.29,7.46-53.19,6.4-31.93-1.89-69-11-96.44-27.74-1.13-.7-2.42-1.49-3.86-2.41A123.94,123.94,0,0,1,83,196.79c-15-23.64-17.52-46.21-18.69-58.21,0,0-5.86-60,32.81-110.34,8.25-10.74,18.92-21.33,30.37-28.6,7.85-5,17-8.3,26.3-7.72C166-7.31,176.92.1,184.67,9.49s12.79,20.67,17.73,31.8l12.09,27.26c3.18,7.16,5.59,17.71,11.7,22.93,8.51,7.27,21.66,6.91,32,5.46,25.41-3.57,51.66-16.06,77.28-6.64a50.89,50.89,0,0,1,8.28,3.91c5.68,3.33,10.74,8.51,14.93,16.2,13.76,25.28,2.95,58.38-9.65,81.8C334.54,219.15,312.82,242.38,284.81,254.7Z"/><path class="cls-2" d="M-38.66,244.69c10.65-1.26,30.34.62,52.75,13.73,12.14,7.1,21.5,15.4,33.32,25.9,17.18,15.24,29.18,25.9,42.73,44.79.89,1.26,1.93,2.7,3.07,4.34a241.59,241.59,0,0,1,30.32,59.47c11.63,33.5,13.09,60.74,13.76,75.17,0,0,3.32,72.13-29.21,115.31a78.85,78.85,0,0,1-23.26,20.09c-4.95,2.79-7.7,3.52-10.68,3.54-7.82,0-19.08-4.86-25.46-15.76-3.49-6-4.77-12.41-5.24-18.77-.56-7.62.05-15.1-.59-21.39C37.07,493.9-79,459.18-101.8,383.63-118.91,327-83,249.92-38.66,244.69Z"/></g></svg>