<svg xmlns="http://www.w3.org/2000/svg" xmlns:xlink="http://www.w3.org/1999/xlink" width="180.93mm" height="120.63mm" viewBox="0 0 512.86 341.95"><defs><style>.cls-1{fill:none;}.cls-2{clip-path:url(#clip-path);}</style><clipPath id="clip-path" transform="translate(136.42 30.89)"><path class="cls-1" d="M186.37,31.92c10.48,9.45,26.66,28.53,36.72,54.43,5.44,14,7.49,25.91,10.07,40.93,3.75,21.83,6.37,37.08,4.1,56.91-.16,1.31-.33,2.83-.56,4.51a123.79,123.79,0,0,1-18.17,50.94C203.43,263.24,184,275,173.61,281.1c0,0-52,30.57-113.91,16.69-16.57-3.71-32-11.82-36.1-14.05-6.55-3.55-9.56-5.83-12.24-8.6C4.34,267.86-2,255.49.59,245.38c1.42-5.51,5.19-9.17,9.61-12,5.3-3.43,11.54-5.72,15.76-8.7C64.35,197.48-13,76,24.13,26,51.93-11.56,142.77-7.4,186.37,31.92Z"/></clipPath></defs><g id="Layer_2" data-name="Layer 2"><g id="Layer_1-2" data-name="Layer 1"><g class="cls-2"><image width="4000" height="2667" transform="scale(0.13)" xlink:href="../../../../../Downloads/lady-phone.jpg"/></g></g></g></svg>