<svg xmlns="http://www.w3.org/2000/svg" width="76.44mm" height="137.52mm" viewBox="0 0 216.68 389.82"><defs><style>.cls-1{fill:#006763;}.cls-2{fill:none;stroke:#fccc8a;stroke-miterlimit:10;}</style></defs><g id="Layer_1" data-name="Layer 1"><path class="cls-1" d="M191.84,542.55q-8.52,3.75-17.47,6.73c-30.55,10.14-63.21,13.36-95.26,11.46-57.2-3.39-123.59-19.62-172.74-49.69-2-1.24-4.35-2.67-6.92-4.31-17.39-11.1-46.09-31.88-69-67.93-27-42.33-31.38-82.76-33.48-104.25,0,0-10.5-107.46,58.77-197.66,14.78-19.23,33.89-38.19,54.4-51.21,14-8.92,30.5-14.87,47.11-13.83C-21,73.23-1.41,86.52,12.47,103.33s22.9,37,31.75,57q10.83,24.41,21.67,48.82c5.69,12.83,10,31.72,20.94,41.07,15.24,13,38.81,12.38,57.32,9.78,45.52-6.4,92.53-28.77,138.43-11.89a93.39,93.39,0,0,1,14.83,7c10.18,6,19.25,15.25,26.75,29,24.64,45.27,5.28,104.56-17.28,146.51C280.91,478.86,242,520.48,191.84,542.55Z"/><path class="cls-2" d="M168.82,200.35C249.2,118.58,92.75,6.13,177-18.63S355.86,25.74,388.16,135.75,378.31,355,294,379.76,61.33,309.7,168.82,200.35Z"/></g></svg>