<svg xmlns="http://www.w3.org/2000/svg" width="271.55mm" height="150.62mm" viewBox="0 0 769.75 426.95"><defs><style>.cls-1{fill:#006763;}.cls-2{fill:none;stroke:#fccc8a;stroke-miterlimit:10;}</style></defs><g id="Layer_1" data-name="Layer 1"><path class="cls-1" d="M-360.43,147.4a110.53,110.53,0,0,1,19.6-28.15c35.39-36.74,84.43-33.32,130.65-41.75,246.31-45,343.43,157.73,597.08,155.92C593.54,231.94,590,97,785.56,117c197.24,20.2,412.77,179,449.1,206.13,8.89,6.64,19,14.3,30.25,23.08,119.3,93.36,248.86,253.9,288.42,402.66,6.21,23.32,9.84,47.86,5.36,71.57-9.26,49-51.15,85.35-95.16,108.78-92.39,49.16-190.13,93.74-293.54,113-153.91,28.66-313.52,17.59-466.3-12.65-112.25-22.22-222.36-55.33-329-96.68C79.48,818.46-304.2,587.94-371,246.91-377.56,213.69-375.12,177.32-360.43,147.4Z"/><path class="cls-2" d="M1076.09,430.08c-14.06,32.33-51.86,85.17-125.68,127.14C910.43,580,871.68,592.8,822.7,609c-71.15,23.57-120.88,40.05-196.27,47.27-5,.47-10.76,1-17.25,1.55a778.2,778.2,0,0,1-217-12.24c-113.2-22.37-192-63.29-233.65-85.27,0,0-207.9-109.9-275.36-273.72-18-43.8-18.14-87.63-17.93-99.33.34-18.68,2.81-27.69,7.69-36.18,12.81-22.28,23.67-126,64.81-126.07,22.46-.05,59.73,1,78.34,10.22C38.43,46.28,57,57.32,75.72,65.92,245.81,144.15,543-4.42,792.76,55.7,979.88,100.74,1134.58,295.54,1076.09,430.08Z"/></g></svg>