<svg xmlns="http://www.w3.org/2000/svg" width="76.44mm" height="137.52mm" viewBox="0 0 216.68 389.82"><defs><style>.cls-1{fill:#006763;}.cls-2{fill:none;stroke:#fccc8a;stroke-miterlimit:10;}</style></defs><g id="Layer_1" data-name="Layer 1"><path class="cls-1" d="M303.06,438.15q-6.48,6.68-13.66,12.79c-24.53,20.87-53.59,36.1-84,46.37-54.3,18.32-121.93,28.17-178.77,18.74-2.34-.39-5-.84-8-1.4C-1.7,510.88-36.1,502.39-70.9,477.59-111.78,448.47-131,412.65-141,393.51c0,0-50-95.68-19.67-205.27,6.48-23.37,17.09-48.12,31.22-67.88,9.67-13.53,22.69-25.23,38.48-30.49,20.69-6.9,43.86-1.94,63,8.43S7.14,124,22.82,139.19l38.4,37.13C71.31,186.08,82.4,202,96,206.53c19,6.36,40.62-3.08,56.8-12.44,39.8-23,75-61.38,123.86-63a92.45,92.45,0,0,1,16.37.93c11.68,1.71,23.56,6.91,35.68,16.87,39.84,32.72,44.13,94.94,38.95,142.29C361.74,345.7,341.29,398.87,303.06,438.15Z"/><path class="cls-2" d="M168.82,200.35C249.2,118.58,92.75,6.13,177-18.63S355.86,25.74,388.16,135.75,378.31,355,294,379.76,61.33,309.7,168.82,200.35Z"/></g></svg>