<svg xmlns="http://www.w3.org/2000/svg" width="271.55mm" height="150.62mm" viewBox="0 0 769.75 426.95"><defs><style>.cls-1{fill:#006763;}.cls-2{fill:none;stroke:#fccc8a;stroke-miterlimit:10;}</style></defs><g id="Layer_1" data-name="Layer 1"><path class="cls-1" d="M1177.2,125.86A110.49,110.49,0,0,1,1157.61,154c-35.4,36.74-84.43,33.32-130.65,41.75C780.64,240.72,683.52,38,429.87,39.84,223.23,41.31,226.76,176.27,31.21,156.25-166,136-381.55-22.78-417.88-49.88c-8.9-6.64-19-14.3-30.26-23.08C-567.44-166.32-697-326.86-736.56-475.62c-6.2-23.32-9.84-47.86-5.36-71.57,9.26-49,51.15-85.35,95.17-108.78,92.38-49.16,190.12-93.74,293.53-113,153.92-28.66,313.52-17.59,466.3,12.65,112.26,22.22,222.36,55.33,329,96.68,295.18,114.43,678.86,345,745.72,686C1194.34,59.57,1191.89,95.94,1177.2,125.86Z"/><path class="cls-2" d="M1146.21,754.43C1127,785,1079.78,832.64,995.54,863.28c-45.63,16.6-88.64,23.33-143,31.83-79,12.36-134.2,21-215.59,16-5.39-.34-11.61-.73-18.59-1.25a885.52,885.52,0,0,1-229.92-48c-117.87-41.29-196.66-95.84-238.17-125,0,0-207.5-145.89-258.12-323.68-13.53-47.53-7.93-92.16-6.18-104,2.8-19,6.6-27.72,12.92-35.57C-84.55,253-46.92,234-3,240.61c24,3.62,44.64,14.1,63.3,26.49C82.66,282,102.15,299.59,121,311.4,292.27,418.87,636.2,189.09,894.83,291.15,1088.6,367.62,1226.15,627.06,1146.21,754.43Z"/></g></svg>