<svg xmlns="http://www.w3.org/2000/svg" width="76.44mm" height="137.52mm" viewBox="0 0 216.68 389.82"><defs><style>.cls-1{fill:#006763;}.cls-2{fill:none;stroke:#fccc8a;stroke-miterlimit:10;}</style></defs><g id="Layer_1" data-name="Layer 1"><path class="cls-1" d="M319.88,44.11q-6.48,6.66-13.66,12.78c-24.53,20.87-53.59,36.1-84,46.37C167.91,121.58,100.28,131.43,43.44,122c-2.34-.39-5-.84-8-1.4-20.29-3.77-54.69-12.26-89.49-37.06C-95,54.42-114.22,18.6-124.23-.54c0,0-50-95.68-19.67-205.27,6.48-23.37,17.08-48.11,31.21-67.88C-103-287.22-90-298.92-74.2-304.18c20.68-6.9,43.86-1.94,63,8.44S24-270,39.64-254.86L78-217.73c10.09,9.76,21.18,25.65,34.82,30.21,19,6.37,40.62-3.08,56.8-12.44,39.8-23,75-61.38,123.86-63a92.45,92.45,0,0,1,16.37.93c11.68,1.71,23.56,6.91,35.68,16.87,39.83,32.72,44.13,94.94,38.95,142.29C378.56-48.35,358.11,4.82,319.88,44.11Z"/><path class="cls-2" d="M359.79-63.41C344.5,53.44,536.41,36.35,484,111.66s-169.11,84.72-260.54,21S100.37-43.68,152.83-119,380.24-219.69,359.79-63.41Z"/><path class="cls-2" d="M91.83,249.55c65.89,97.72,198.43-42.13,209,49S230.12,474,119.42,486.82s-209-50.76-219.5-141.93S3.71,118.88,91.83,249.55Z"/></g></svg>