<svg xmlns="http://www.w3.org/2000/svg" width="75.67mm" height="26.7mm" viewBox="0 0 214.48 75.69"><defs><style>.cls-1{fill:#fccc8a;opacity:0.65;}</style></defs><g id="Layer_1" data-name="Layer 1"><path class="cls-1" d="M41.68,14.05C28.81,22.94,22.5,31.13,22.5,38.86a3.19,3.19,0,0,0,3.27,3.27,5.26,5.26,0,0,0,1.64-.47,29.07,29.07,0,0,1,4.45-.46c8.89,0,14,4.44,14,11.93,0,8-5.62,13.34-13.81,13.34-10.76,0-18.72-8.89-18.72-20.83,0-14,10.3-28.31,26.21-36Zm54.29,0C83.1,22.94,76.78,31.13,76.78,38.86a3.2,3.2,0,0,0,3.28,3.27,5.26,5.26,0,0,0,1.64-.47,29.07,29.07,0,0,1,4.44-.46c8.89,0,14,4.44,14,11.93,0,8-5.61,13.34-13.8,13.34-10.53,0-18.72-8.89-18.72-20.83,0-14,10.29-28.31,26.21-36Z"/></g></svg>