<svg xmlns="http://www.w3.org/2000/svg" width="82.41mm" height="62.47mm" viewBox="0 0 233.6 177.08"><defs><style>.cls-1{fill:#fccc8a;opacity:0.65;}</style></defs><g id="Layer_1" data-name="Layer 1"><path class="cls-1" d="M45,23.61C32.14,32.5,25.82,40.69,25.82,48.41a3.2,3.2,0,0,0,3.28,3.28,5.26,5.26,0,0,0,1.64-.47,29.09,29.09,0,0,1,4.44-.47c8.89,0,14,4.45,14,11.94,0,8-5.61,13.33-13.8,13.33C24.65,76,16.7,67.13,16.7,55.2c0-14,10.29-28.31,26.2-36Zm54.29,0C86.43,32.5,80.11,40.69,80.11,48.41a3.19,3.19,0,0,0,3.27,3.28A5.26,5.26,0,0,0,85,51.22a29.22,29.22,0,0,1,4.45-.47c8.89,0,14,4.45,14,11.94,0,8-5.62,13.33-13.81,13.33C79.17,76,71,67.13,71,55.2c0-14,10.3-28.31,26.21-36Z"/><path class="cls-1" d="M134.13,153.63c12.87-8.89,19.19-17.08,19.19-24.81a3.19,3.19,0,0,0-3.28-3.27,5.26,5.26,0,0,0-1.63.47,29.2,29.2,0,0,1-4.45.46c-8.89,0-14-4.44-14-11.93,0-8,5.62-13.34,13.81-13.34,10.53,0,18.72,8.9,18.72,20.83,0,14-10.3,28.31-26.21,36Zm54.29,0c12.87-8.89,19.19-17.08,19.19-24.81a3.2,3.2,0,0,0-3.28-3.27,5.26,5.26,0,0,0-1.64.47,29.07,29.07,0,0,1-4.44.46c-8.89,0-14-4.44-14-11.93,0-8,5.61-13.34,13.8-13.34,10.77,0,18.72,8.9,18.72,20.83,0,14-10.29,28.31-26.2,36Z"/></g></svg>