<svg xmlns="http://www.w3.org/2000/svg" width="271.55mm" height="150.62mm" viewBox="0 0 769.75 426.95"><defs><style>.cls-1{fill:#f9f9f9;}.cls-2,.cls-3{fill:none;stroke:#fccc8a;stroke-miterlimit:10;}.cls-2{stroke-width:0.5px;}</style></defs><g id="Layer_1" data-name="Layer 1"><rect class="cls-1" x="-44.51" y="-260.7" width="858.78" height="476.33"/><path class="cls-2" d="M854.08,17.12c15,8.27,39.08,27.28,57.15,58.62,9.79,17,14.92,32.56,21.4,52.26,9.42,28.62,16,48.62,17.56,77.26.1,1.9.21,4.09.31,6.54a220.21,220.21,0,0,1-11.15,79.31C926,331,904.63,356.36,893.18,369.71c0,0-57.2,66.72-136.49,76.26-21.2,2.55-42-1.54-47.51-2.73-8.84-1.89-13-3.66-16.95-6.27-10.24-6.85-20.77-21.11-19.8-36.38.52-8.33,4.36-15.17,9.17-21.2,5.77-7.24,12.94-13.32,17.48-19.44,41.27-55.69-80.6-188.63-46-275.57C679.08,19.24,791.77-17.28,854.08,17.12Z"/><path class="cls-3" d="M-22.1,434.69c-11.38-4-30.36-15.62-46.57-40.13-8.78-13.28-14.16-26.41-21-43-9.87-24.12-16.77-41-21.17-67-.29-1.73-.63-3.72-1-6a277.93,277.93,0,0,1-1.43-76c4.71-40.09,16.62-68.74,23-83.87,0,0,32.1-75.6,86.2-103.82C10.51,7.36,25.45,6.06,29.44,5.8,35.82,5.38,39,6,42,7.44c7.92,3.82,16.9,14.4,18,28.73C60.56,44,58.68,51.25,56,58c-3.18,8.09-7.47,15.46-9.92,22.23-22.28,61.52,78,154.41,63.91,243.16C99.49,389.89,25.26,451.19-22.1,434.69Z"/></g></svg>