<svg xmlns="http://www.w3.org/2000/svg" width="76.44mm" height="137.52mm" viewBox="0 0 216.68 389.82"><defs><style>.cls-1{fill:#f9f9f9;}.cls-2{fill:none;stroke:#fccc8a;stroke-miterlimit:10;}</style></defs><g id="Layer_1" data-name="Layer 1"><rect class="cls-1" x="-23.03" y="-292.49" width="257.46" height="476.33"/><path class="cls-2" d="M123.06,502.17c-10.65,1.26-30.34-.62-52.76-13.73C58.16,481.33,48.81,473,37,462.54c-17.18-15.25-29.19-25.9-42.73-44.8-.9-1.25-1.93-2.7-3.07-4.34a240.86,240.86,0,0,1-30.32-59.47c-11.64-33.49-13.1-60.73-13.76-75.16,0,0-3.32-72.14,29.2-115.32A79.05,79.05,0,0,1-.42,143.37c5-2.8,7.69-3.53,10.67-3.54,7.82,0,19.08,4.86,25.47,15.76,3.49,5.95,4.76,12.41,5.23,18.76.56,7.63,0,15.1.59,21.4C47.32,253,163.36,287.67,186.2,363.23,203.31,419.84,167.36,496.93,123.06,502.17Z"/></g></svg>