<svg id="Layer_1" data-name="Layer 1" xmlns="http://www.w3.org/2000/svg" xmlns:xlink="http://www.w3.org/1999/xlink" viewBox="0 0 717.31 390.75"><defs><style>.cls-1{fill:#fccc8a;}.cls-2{fill:#e5e5e5;}.cls-3{fill:none;stroke:#e5e5e5;stroke-miterlimit:10;stroke-width:2px;}</style></defs><circle class="cls-1" cx="119.63" cy="195.38" r="3.84"/><circle class="cls-1" cx="132.2" cy="195.38" r="3.84"/><circle class="cls-1" cx="144.77" cy="195.38" r="3.84"/><circle class="cls-1" cx="157.34" cy="195.38" r="3.84"/><circle class="cls-1" cx="169.9" cy="195.38" r="3.84"/><circle class="cls-1" cx="182.47" cy="195.38" r="3.84"/><circle class="cls-1" cx="195.04" cy="195.38" r="3.84"/><circle class="cls-1" cx="207.6" cy="195.38" r="3.84"/><circle class="cls-1" cx="464.33" cy="195.38" r="3.84"/><circle class="cls-1" cx="476.9" cy="195.38" r="3.84"/><circle class="cls-1" cx="489.47" cy="195.38" r="3.84"/><circle class="cls-1" cx="502.03" cy="195.38" r="3.84"/><circle class="cls-1" cx="514.6" cy="195.38" r="3.84"/><circle class="cls-1" cx="527.17" cy="195.38" r="3.84"/><circle class="cls-1" cx="539.74" cy="195.38" r="3.84"/><circle class="cls-1" cx="552.3" cy="195.38" r="3.84"/><circle class="cls-2" cx="612.77" cy="166.47" r="9.93"/><ellipse class="cls-2" cx="612.77" cy="202.76" rx="10.03" ry="30.06"/><circle class="cls-2" cx="707.28" cy="166.77" r="9.93"/><ellipse class="cls-2" cx="707.28" cy="203.07" rx="10.03" ry="30.06"/><rect class="cls-2" x="647.12" y="183.51" width="24.54" height="2.36" rx="1.11"/><path class="cls-2" d="M844.19,241.53a12.06,12.06,0,0,1-.81-4.39,12.27,12.27,0,1,1,23.73,4.39" transform="translate(-196.25 -61.13)"/><path class="cls-3" d="M851.75,223.5a3.92,3.92,0,1,1,7.79,0" transform="translate(-196.25 -61.13)"/><rect class="cls-2" x="632.67" y="191.14" width="55.19" height="7.22" rx="3.61"/><rect class="cls-2" x="632.67" y="193.75" width="2.76" height="36.66" rx="1.38"/><rect class="cls-2" x="684.95" y="193.18" width="2.76" height="36.66" rx="1.38"/><circle class="cls-2" cx="12.7" cy="185.58" r="8.93"/><rect class="cls-2" y="191.61" width="25.4" height="51.67" rx="8.74"/><rect class="cls-2" x="209.2" y="258.77" width="24.92" height="6.46" rx="3.23" transform="translate(-74.26 -127.52) rotate(23.35)"/><rect class="cls-2" x="227.75" y="257.82" width="21.96" height="6.36" rx="2.91" transform="translate(-294.77 93.21) rotate(-30)"/><rect class="cls-2" x="43.06" y="182.35" width="33.58" height="3.23" rx="1.11"/><path class="cls-2" d="M240.42,239.23a16.79,16.79,0,1,1,32.47-6,16.87,16.87,0,0,1-1.1,6" transform="translate(-196.25 -61.13)"/><path class="cls-3" d="M250.77,214.55c0-3.29,2.39-6,5.33-6s5.33,2.66,5.33,6" transform="translate(-196.25 -61.13)"/><image width="269" height="521" transform="translate(235.87) scale(0.75)" xlink:href="Screenshot_2021-12-17_at_14.21.35-removebg-preview-3.png"/></svg>